G04 #@! TF.FileFunction,Copper,L2,Bot,Signal*
%FSLAX46Y46*%
G04 Gerber Fmt 4.6, Leading zero omitted, Abs format (unit mm)*
G04 Created by KiCad (PCBNEW 4.0.7) date 11/23/17 20:16:03*
%MOMM*%
%LPD*%
G01*
G04 APERTURE LIST*
%ADD10C,0.100000*%
%ADD11C,3.000000*%
%ADD12R,3.000000X3.000000*%
%ADD13C,1.520000*%
%ADD14C,2.700000*%
%ADD15R,1.600000X1.600000*%
%ADD16C,1.600000*%
%ADD17R,1.700000X1.700000*%
%ADD18O,1.700000X1.700000*%
%ADD19C,1.500000*%
%ADD20O,1.998980X1.998980*%
%ADD21R,1.998980X1.998980*%
%ADD22C,5.700000*%
%ADD23R,1.200000X1.700000*%
%ADD24O,1.200000X1.700000*%
%ADD25C,0.600000*%
%ADD26C,0.800000*%
%ADD27C,0.250000*%
%ADD28C,0.700000*%
%ADD29C,1.000000*%
%ADD30C,1.400000*%
%ADD31C,1.200000*%
%ADD32C,0.500000*%
G04 APERTURE END LIST*
D10*
D11*
X118956000Y-97028000D03*
D12*
X139446000Y-97028000D03*
D13*
X199000000Y-61040000D03*
X199000000Y-58500000D03*
X201000000Y-58500000D03*
X201000000Y-61040000D03*
D14*
X203700000Y-65770000D03*
X203700000Y-53770000D03*
D15*
X124500000Y-56500000D03*
D16*
X124500000Y-54000000D03*
D17*
X172000000Y-94000000D03*
D18*
X169460000Y-94000000D03*
X166920000Y-94000000D03*
D17*
X166500000Y-100500000D03*
D18*
X169040000Y-100500000D03*
X171580000Y-100500000D03*
X174120000Y-100500000D03*
D17*
X158500000Y-92500000D03*
D18*
X155960000Y-92500000D03*
X153420000Y-92500000D03*
X150880000Y-92500000D03*
D17*
X149500000Y-81500000D03*
D18*
X146960000Y-81500000D03*
X144420000Y-81500000D03*
X141880000Y-81500000D03*
D17*
X192500000Y-112000000D03*
D18*
X195040000Y-112000000D03*
X197580000Y-112000000D03*
D19*
X177310000Y-58370000D03*
X182190000Y-58370000D03*
D20*
X211000000Y-72960000D03*
D21*
X211000000Y-75500000D03*
D17*
X165500000Y-47000000D03*
D18*
X162960000Y-47000000D03*
X160420000Y-47000000D03*
D22*
X210500000Y-139500000D03*
X118500000Y-139500000D03*
X118500000Y-47500000D03*
X210500000Y-47500000D03*
D17*
X181500000Y-126000000D03*
D18*
X184040000Y-126000000D03*
X186580000Y-126000000D03*
D17*
X181500000Y-130500000D03*
D18*
X184040000Y-130500000D03*
X186580000Y-130500000D03*
D23*
X199000000Y-117500000D03*
D24*
X201000000Y-117500000D03*
X203000000Y-117500000D03*
D23*
X199000000Y-124500000D03*
D24*
X201000000Y-124500000D03*
X203000000Y-124500000D03*
D23*
X199000000Y-131500000D03*
D24*
X201000000Y-131500000D03*
X203000000Y-131500000D03*
D23*
X199000000Y-138500000D03*
D24*
X201000000Y-138500000D03*
X203000000Y-138500000D03*
D17*
X181500000Y-135000000D03*
D18*
X184040000Y-135000000D03*
X186580000Y-135000000D03*
D17*
X181500000Y-139500000D03*
D18*
X184040000Y-139500000D03*
X186580000Y-139500000D03*
D17*
X181500000Y-120000000D03*
D18*
X184040000Y-120000000D03*
X186580000Y-120000000D03*
D25*
X160000000Y-103500000D03*
X167500000Y-53000000D03*
X206500000Y-102500000D03*
X161500000Y-85500000D03*
X156000000Y-84500000D03*
X204500000Y-99000000D03*
X204500000Y-85000000D03*
X157500000Y-49000000D03*
X160500000Y-57000000D03*
X174770000Y-55830000D03*
X170960000Y-65990000D03*
D26*
X197630000Y-68530000D03*
X197630000Y-73610000D03*
D25*
X133858000Y-72644000D03*
X204500000Y-80000000D03*
X137795000Y-74930000D03*
X186000000Y-110500000D03*
X160500000Y-66000000D03*
X136500000Y-52000000D03*
X191500000Y-92000000D03*
X189500000Y-77000000D03*
X173500000Y-54560000D03*
D26*
X162070000Y-57100000D03*
D25*
X190000000Y-52000000D03*
X179000000Y-90000000D03*
X155000000Y-82000000D03*
X194500000Y-89500000D03*
X194500000Y-65000000D03*
X195500000Y-78000000D03*
X188740000Y-54560000D03*
X178580000Y-50750000D03*
X159000000Y-100000000D03*
X154000000Y-97000000D03*
X132207000Y-84074000D03*
X146177000Y-55499000D03*
X131318000Y-70040500D03*
X140335000Y-84455000D03*
X132715000Y-82804000D03*
X147955000Y-57150000D03*
X132842000Y-72199500D03*
X159512000Y-88011000D03*
X175260000Y-117729000D03*
X160528000Y-87503000D03*
X135500000Y-59500000D03*
X136000000Y-61500000D03*
X138500000Y-63000000D03*
X138500000Y-64000000D03*
X190500000Y-137000000D03*
X178181000Y-124587000D03*
X178181000Y-118491000D03*
X164338000Y-87503000D03*
X165100000Y-84582000D03*
X161798000Y-80518000D03*
X173863000Y-114808000D03*
X163830000Y-102870000D03*
X160020000Y-90424000D03*
X158242000Y-88265000D03*
X158242000Y-81534000D03*
X146939000Y-66040000D03*
X167500000Y-52000000D03*
X157000000Y-67500000D03*
X189500000Y-105500000D03*
X191500000Y-98000000D03*
X136500000Y-54000000D03*
X129921000Y-92964000D03*
X125984000Y-68453000D03*
X144526000Y-101219000D03*
X127000000Y-68453000D03*
X156210000Y-110744000D03*
X152146000Y-100838000D03*
X132334000Y-89535000D03*
X128397000Y-70104000D03*
X144000000Y-66000000D03*
X142000000Y-65500000D03*
X143000000Y-73500000D03*
D27*
X155960000Y-92500000D02*
X155960000Y-95960000D01*
X160000000Y-100000000D02*
X160000000Y-103500000D01*
X155960000Y-95960000D02*
X160000000Y-100000000D01*
D28*
X160420000Y-47000000D02*
X160420000Y-49420000D01*
X164000000Y-53000000D02*
X167500000Y-53000000D01*
X160420000Y-49420000D02*
X164000000Y-53000000D01*
X166920000Y-94000000D02*
X166920000Y-91482000D01*
X161500000Y-86062000D02*
X161500000Y-85500000D01*
X166920000Y-91482000D02*
X161500000Y-86062000D01*
D29*
X201000000Y-138500000D02*
X201000000Y-141000000D01*
X200500000Y-141000000D02*
X190000000Y-141000000D01*
X201000000Y-141000000D02*
X200500000Y-141000000D01*
X201000000Y-117500000D02*
X201000000Y-113000000D01*
X207500000Y-103500000D02*
X206500000Y-102500000D01*
X207500000Y-106500000D02*
X207500000Y-103500000D01*
X204500000Y-109500000D02*
X207500000Y-106500000D01*
X201000000Y-113000000D02*
X204500000Y-109500000D01*
D28*
X157000000Y-85500000D02*
X161500000Y-85500000D01*
X156000000Y-84500000D02*
X157000000Y-85500000D01*
D29*
X204500000Y-85000000D02*
X204500000Y-99000000D01*
X157500000Y-54000000D02*
X157500000Y-49000000D01*
X160500000Y-57000000D02*
X157500000Y-54000000D01*
X174770000Y-62180000D02*
X174770000Y-55830000D01*
X170960000Y-65990000D02*
X174770000Y-62180000D01*
D30*
X197630000Y-73610000D02*
X197630000Y-68530000D01*
D29*
X190000000Y-141000000D02*
X188000000Y-141000000D01*
X184000000Y-141500000D02*
X184000000Y-139540000D01*
X185000000Y-142500000D02*
X184000000Y-141500000D01*
X186500000Y-142500000D02*
X185000000Y-142500000D01*
X188000000Y-141000000D02*
X186500000Y-142500000D01*
X184000000Y-139540000D02*
X184040000Y-139500000D01*
D28*
X139446000Y-97028000D02*
X137541000Y-97028000D01*
X133858000Y-93345000D02*
X133858000Y-72644000D01*
X137541000Y-97028000D02*
X133858000Y-93345000D01*
X191500000Y-80500000D02*
X192000000Y-80000000D01*
X192000000Y-80000000D02*
X204500000Y-80000000D01*
X158500000Y-90936000D02*
X158500000Y-92500000D01*
X154178000Y-86614000D02*
X158500000Y-90936000D01*
X144145000Y-86614000D02*
X154178000Y-86614000D01*
X139446000Y-81915000D02*
X144145000Y-86614000D01*
X139446000Y-76581000D02*
X139446000Y-81915000D01*
X137795000Y-74930000D02*
X139446000Y-76581000D01*
X186580000Y-111080000D02*
X186580000Y-120000000D01*
X186000000Y-110500000D02*
X186580000Y-111080000D01*
X160500000Y-66000000D02*
X160500000Y-61000000D01*
D31*
X171500000Y-77000000D02*
X160500000Y-66000000D01*
X189500000Y-77000000D02*
X171500000Y-77000000D01*
D28*
X151500000Y-52000000D02*
X136500000Y-52000000D01*
X160500000Y-61000000D02*
X151500000Y-52000000D01*
D31*
X191500000Y-79000000D02*
X191500000Y-80500000D01*
X191500000Y-80500000D02*
X191500000Y-82000000D01*
X191500000Y-82000000D02*
X191500000Y-92000000D01*
X189500000Y-77000000D02*
X191500000Y-79000000D01*
D32*
X164610000Y-54560000D02*
X173500000Y-54560000D01*
X162070000Y-57100000D02*
X164610000Y-54560000D01*
D29*
X191500000Y-62000000D02*
X194500000Y-65000000D01*
X191500000Y-53500000D02*
X191500000Y-62000000D01*
X190000000Y-52000000D02*
X191500000Y-53500000D01*
D28*
X169000000Y-90000000D02*
X179000000Y-90000000D01*
X162000000Y-83000000D02*
X169000000Y-90000000D01*
X156000000Y-83000000D02*
X162000000Y-83000000D01*
X155000000Y-82000000D02*
X156000000Y-83000000D01*
D29*
X192500000Y-112000000D02*
X192500000Y-101500000D01*
X192500000Y-101500000D02*
X194500000Y-99500000D01*
X194500000Y-99500000D02*
X194500000Y-89500000D01*
D31*
X194500000Y-77000000D02*
X194500000Y-65000000D01*
X195500000Y-78000000D02*
X194500000Y-77000000D01*
D32*
X188740000Y-54560000D02*
X184930000Y-50750000D01*
X184930000Y-50750000D02*
X178580000Y-50750000D01*
D27*
X157500000Y-98500000D02*
X159000000Y-100000000D01*
X155500000Y-98500000D02*
X157500000Y-98500000D01*
X154000000Y-97000000D02*
X155500000Y-98500000D01*
D28*
X131318000Y-70040500D02*
X131318000Y-83185000D01*
X131318000Y-83185000D02*
X132207000Y-84074000D01*
X145669000Y-56007000D02*
X146177000Y-55499000D01*
X129857500Y-56007000D02*
X145669000Y-56007000D01*
X129413000Y-56451500D02*
X129857500Y-56007000D01*
X129413000Y-68135500D02*
X129413000Y-56451500D01*
X131318000Y-70040500D02*
X129413000Y-68135500D01*
X132842000Y-72199500D02*
X132842000Y-82677000D01*
X150880000Y-88777000D02*
X150880000Y-92500000D01*
X149860000Y-87757000D02*
X150880000Y-88777000D01*
X143637000Y-87757000D02*
X149860000Y-87757000D01*
X140335000Y-84455000D02*
X143637000Y-87757000D01*
X132842000Y-82677000D02*
X132715000Y-82804000D01*
X134937500Y-57150000D02*
X147955000Y-57150000D01*
X132397500Y-59690000D02*
X134937500Y-57150000D01*
X132397500Y-71755000D02*
X132397500Y-59690000D01*
X132842000Y-72199500D02*
X132397500Y-71755000D01*
X177800000Y-122300000D02*
X181500000Y-126000000D01*
X177800000Y-121666000D02*
X177800000Y-122300000D01*
X161036000Y-104902000D02*
X177800000Y-121666000D01*
X161036000Y-89535000D02*
X161036000Y-104902000D01*
X159512000Y-88011000D02*
X161036000Y-89535000D01*
X181500000Y-126500000D02*
X181500000Y-126000000D01*
X162052000Y-104521000D02*
X175260000Y-117729000D01*
X162052000Y-89027000D02*
X162052000Y-104521000D01*
X160528000Y-87503000D02*
X162052000Y-89027000D01*
X199000000Y-117500000D02*
X198000000Y-116500000D01*
X194000000Y-116500000D02*
X193000000Y-115500000D01*
X198000000Y-116500000D02*
X194000000Y-116500000D01*
X190500000Y-113000000D02*
X193000000Y-115500000D01*
X180500000Y-84500000D02*
X185500000Y-89500000D01*
X172000000Y-84500000D02*
X180500000Y-84500000D01*
X148000000Y-60500000D02*
X172000000Y-84500000D01*
X136500000Y-60500000D02*
X148000000Y-60500000D01*
X135500000Y-59500000D02*
X136500000Y-60500000D01*
X185500000Y-89500000D02*
X185500000Y-103500000D01*
X185500000Y-103500000D02*
X190500000Y-108500000D01*
X190500000Y-108500000D02*
X190500000Y-113000000D01*
X199000000Y-124500000D02*
X198500000Y-124000000D01*
X198500000Y-124000000D02*
X196000000Y-124000000D01*
X196000000Y-124000000D02*
X194500000Y-122500000D01*
X189500000Y-115000000D02*
X194500000Y-120000000D01*
X194500000Y-120000000D02*
X194500000Y-122500000D01*
X184599998Y-104099998D02*
X189500000Y-109000000D01*
X189500000Y-109000000D02*
X189500000Y-115000000D01*
X180127206Y-85400002D02*
X184599998Y-89872794D01*
X184599998Y-89872794D02*
X184599998Y-104099998D01*
X136000000Y-61500000D02*
X147500000Y-61500000D01*
X147500000Y-61500000D02*
X171400002Y-85400002D01*
X171400002Y-85400002D02*
X180127206Y-85400002D01*
X199000000Y-131500000D02*
X197500000Y-130000000D01*
X195000000Y-130000000D02*
X193500000Y-128500000D01*
X197500000Y-130000000D02*
X195000000Y-130000000D01*
X193500000Y-120500000D02*
X193500000Y-128500000D01*
X188599998Y-109500000D02*
X188599998Y-115599998D01*
X183500000Y-104400002D02*
X188599998Y-109500000D01*
X183500000Y-90500000D02*
X183500000Y-104400002D01*
X179500000Y-86500000D02*
X183500000Y-90500000D01*
X171000000Y-86500000D02*
X179500000Y-86500000D01*
X147000000Y-62500000D02*
X171000000Y-86500000D01*
X139000000Y-62500000D02*
X147000000Y-62500000D01*
X138500000Y-63000000D02*
X139000000Y-62500000D01*
X188599998Y-115599998D02*
X193500000Y-120500000D01*
X138500000Y-64000000D02*
X145500000Y-64000000D01*
X145500000Y-64000000D02*
X146500000Y-64000000D01*
X146500000Y-64000000D02*
X147636398Y-65136398D01*
X147636398Y-65136398D02*
X148363602Y-65136398D01*
X148363602Y-65136398D02*
X170627206Y-87400002D01*
X170627206Y-87400002D02*
X178900002Y-87400002D01*
X178900002Y-87400002D02*
X182500000Y-91000000D01*
X182500000Y-91000000D02*
X182500000Y-104672798D01*
X182500000Y-104672798D02*
X187699996Y-109872794D01*
X187699996Y-109872794D02*
X187699996Y-116099998D01*
X187699996Y-116099998D02*
X192500000Y-120900002D01*
X192500000Y-120900002D02*
X192500000Y-135000000D01*
X192500000Y-135000000D02*
X190500000Y-137000000D01*
X177673000Y-131173000D02*
X181500000Y-135000000D01*
X177673000Y-125095000D02*
X177673000Y-131173000D01*
X178181000Y-124587000D02*
X177673000Y-125095000D01*
X179959000Y-116713000D02*
X178181000Y-118491000D01*
X179959000Y-93980000D02*
X179959000Y-116713000D01*
X177292000Y-91313000D02*
X179959000Y-93980000D01*
X168148000Y-91313000D02*
X177292000Y-91313000D01*
X164338000Y-87503000D02*
X168148000Y-91313000D01*
X162306000Y-81788000D02*
X165100000Y-84582000D01*
X162306000Y-81026000D02*
X162306000Y-81788000D01*
X161798000Y-80518000D02*
X162306000Y-81026000D01*
X173863000Y-112903000D02*
X173863000Y-114808000D01*
X163830000Y-102870000D02*
X173863000Y-112903000D01*
X160020000Y-90043000D02*
X160020000Y-90424000D01*
X158242000Y-88265000D02*
X160020000Y-90043000D01*
X158242000Y-77343000D02*
X158242000Y-81534000D01*
X146939000Y-66040000D02*
X158242000Y-77343000D01*
D32*
X165500000Y-47000000D02*
X165500000Y-51000000D01*
X166500000Y-52000000D02*
X167500000Y-52000000D01*
X165500000Y-51000000D02*
X166500000Y-52000000D01*
D28*
X173000000Y-83500000D02*
X157000000Y-67500000D01*
X181000000Y-83500000D02*
X173000000Y-83500000D01*
X187000000Y-89500000D02*
X181000000Y-83500000D01*
X187000000Y-103000000D02*
X187000000Y-89500000D01*
X189500000Y-105500000D02*
X187000000Y-103000000D01*
X189500000Y-96000000D02*
X191500000Y-98000000D01*
X189500000Y-82000000D02*
X189500000Y-96000000D01*
X187500000Y-80000000D02*
X189500000Y-82000000D01*
X172500000Y-80000000D02*
X187500000Y-80000000D01*
X158500000Y-66000000D02*
X172500000Y-80000000D01*
X158500000Y-63000000D02*
X158500000Y-66000000D01*
X149500000Y-54000000D02*
X158500000Y-63000000D01*
X136500000Y-54000000D02*
X149500000Y-54000000D01*
X124587000Y-87630000D02*
X129921000Y-92964000D01*
X124587000Y-69850000D02*
X124587000Y-87630000D01*
X125984000Y-68453000D02*
X124587000Y-69850000D01*
X143637000Y-100330000D02*
X144526000Y-101219000D01*
X137287000Y-100330000D02*
X143637000Y-100330000D01*
X131318000Y-94361000D02*
X137287000Y-100330000D01*
X131318000Y-92329000D02*
X131318000Y-94361000D01*
X126111000Y-87122000D02*
X131318000Y-92329000D01*
X126111000Y-70612000D02*
X126111000Y-87122000D01*
X127000000Y-69723000D02*
X126111000Y-70612000D01*
X127000000Y-68453000D02*
X127000000Y-69723000D01*
X156210000Y-104902000D02*
X156210000Y-110744000D01*
X152146000Y-100838000D02*
X156210000Y-104902000D01*
X128651000Y-85852000D02*
X132334000Y-89535000D01*
X128651000Y-70358000D02*
X128651000Y-85852000D01*
X128397000Y-70104000D02*
X128651000Y-70358000D01*
D32*
X144000000Y-66000000D02*
X144000000Y-72000000D01*
X144000000Y-72000000D02*
X144000000Y-81080000D01*
X144000000Y-81080000D02*
X144420000Y-81500000D01*
X142000000Y-65500000D02*
X142000000Y-72500000D01*
X142000000Y-72500000D02*
X143000000Y-73500000D01*
D28*
X186580000Y-124580000D02*
X186580000Y-126000000D01*
X184040000Y-122040000D02*
X186580000Y-124580000D01*
X184040000Y-120000000D02*
X184040000Y-122040000D01*
M02*
