G04 #@! TF.FileFunction,Soldermask,Bot*
%FSLAX46Y46*%
G04 Gerber Fmt 4.6, Leading zero omitted, Abs format (unit mm)*
G04 Created by KiCad (PCBNEW 4.0.7) date 11/23/17 20:16:06*
%MOMM*%
%LPD*%
G01*
G04 APERTURE LIST*
%ADD10C,0.100000*%
%ADD11C,3.400000*%
%ADD12R,3.400000X3.400000*%
%ADD13C,1.920000*%
%ADD14C,3.100000*%
%ADD15R,2.000000X2.000000*%
%ADD16C,2.000000*%
%ADD17R,2.100000X2.100000*%
%ADD18O,2.100000X2.100000*%
%ADD19C,1.900000*%
%ADD20O,2.398980X2.398980*%
%ADD21R,2.398980X2.398980*%
%ADD22C,1.500000*%
%ADD23C,6.100000*%
%ADD24R,1.600000X2.100000*%
%ADD25O,1.600000X2.100000*%
G04 APERTURE END LIST*
D10*
D11*
X118956000Y-97028000D03*
D12*
X139446000Y-97028000D03*
D13*
X199000000Y-61040000D03*
X199000000Y-58500000D03*
X201000000Y-58500000D03*
X201000000Y-61040000D03*
D14*
X203700000Y-65770000D03*
X203700000Y-53770000D03*
D15*
X124500000Y-56500000D03*
D16*
X124500000Y-54000000D03*
D17*
X172000000Y-94000000D03*
D18*
X169460000Y-94000000D03*
X166920000Y-94000000D03*
D17*
X166500000Y-100500000D03*
D18*
X169040000Y-100500000D03*
X171580000Y-100500000D03*
X174120000Y-100500000D03*
D17*
X158500000Y-92500000D03*
D18*
X155960000Y-92500000D03*
X153420000Y-92500000D03*
X150880000Y-92500000D03*
D17*
X149500000Y-81500000D03*
D18*
X146960000Y-81500000D03*
X144420000Y-81500000D03*
X141880000Y-81500000D03*
D17*
X192500000Y-112000000D03*
D18*
X195040000Y-112000000D03*
X197580000Y-112000000D03*
D19*
X177310000Y-58370000D03*
X182190000Y-58370000D03*
D20*
X211000000Y-72960000D03*
D21*
X211000000Y-75500000D03*
D22*
X213540000Y-75500000D03*
X213540000Y-72960000D03*
D17*
X165500000Y-47000000D03*
D18*
X162960000Y-47000000D03*
X160420000Y-47000000D03*
D23*
X210500000Y-139500000D03*
X118500000Y-139500000D03*
X118500000Y-47500000D03*
X210500000Y-47500000D03*
D17*
X181500000Y-126000000D03*
D18*
X184040000Y-126000000D03*
X186580000Y-126000000D03*
D17*
X181500000Y-130500000D03*
D18*
X184040000Y-130500000D03*
X186580000Y-130500000D03*
D24*
X199000000Y-117500000D03*
D25*
X201000000Y-117500000D03*
X203000000Y-117500000D03*
D24*
X199000000Y-124500000D03*
D25*
X201000000Y-124500000D03*
X203000000Y-124500000D03*
D24*
X199000000Y-131500000D03*
D25*
X201000000Y-131500000D03*
X203000000Y-131500000D03*
D24*
X199000000Y-138500000D03*
D25*
X201000000Y-138500000D03*
X203000000Y-138500000D03*
D17*
X181500000Y-135000000D03*
D18*
X184040000Y-135000000D03*
X186580000Y-135000000D03*
D17*
X181500000Y-139500000D03*
D18*
X184040000Y-139500000D03*
X186580000Y-139500000D03*
D17*
X181500000Y-120000000D03*
D18*
X184040000Y-120000000D03*
X186580000Y-120000000D03*
M02*
