G04 #@! TF.FileFunction,Copper,L1,Top,Signal*
%FSLAX46Y46*%
G04 Gerber Fmt 4.6, Leading zero omitted, Abs format (unit mm)*
G04 Created by KiCad (PCBNEW 4.0.7) date 11/23/17 20:16:03*
%MOMM*%
%LPD*%
G01*
G04 APERTURE LIST*
%ADD10C,0.100000*%
%ADD11C,3.000000*%
%ADD12R,3.000000X3.000000*%
%ADD13R,1.600200X2.199640*%
%ADD14R,1.925000X0.650000*%
%ADD15C,1.520000*%
%ADD16C,2.700000*%
%ADD17R,1.600000X1.600000*%
%ADD18C,1.600000*%
%ADD19R,1.250000X1.500000*%
%ADD20R,1.700000X1.700000*%
%ADD21O,1.700000X1.700000*%
%ADD22R,1.300000X1.500000*%
%ADD23R,1.500000X1.300000*%
%ADD24R,1.800000X1.100000*%
%ADD25O,2.500000X0.900000*%
%ADD26O,0.900000X2.500000*%
%ADD27R,6.000000X6.000000*%
%ADD28R,4.600000X1.100000*%
%ADD29R,9.400000X10.800000*%
%ADD30R,4.550000X5.250000*%
%ADD31R,0.800000X1.300000*%
%ADD32C,1.500000*%
%ADD33O,1.998980X1.998980*%
%ADD34R,1.998980X1.998980*%
%ADD35R,0.350000X0.500000*%
%ADD36C,5.700000*%
%ADD37R,1.200000X1.700000*%
%ADD38O,1.200000X1.700000*%
%ADD39C,0.600000*%
%ADD40C,0.800000*%
%ADD41C,1.000000*%
%ADD42C,0.700000*%
%ADD43C,0.250000*%
%ADD44C,1.200000*%
%ADD45C,0.500000*%
G04 APERTURE END LIST*
D10*
D11*
X118956000Y-97028000D03*
D12*
X139446000Y-97028000D03*
D13*
X190600080Y-48000000D03*
X194399920Y-48000000D03*
X200100080Y-70500000D03*
X203899920Y-70500000D03*
D14*
X119788000Y-72055000D03*
X119788000Y-73325000D03*
X119788000Y-74595000D03*
X119788000Y-75865000D03*
X119788000Y-77135000D03*
X119788000Y-78405000D03*
X119788000Y-79675000D03*
X119788000Y-80945000D03*
X129212000Y-80945000D03*
X129212000Y-79675000D03*
X129212000Y-78405000D03*
X129212000Y-77135000D03*
X129212000Y-75865000D03*
X129212000Y-74595000D03*
X129212000Y-73325000D03*
X129212000Y-72055000D03*
D15*
X199000000Y-61040000D03*
X199000000Y-58500000D03*
X201000000Y-58500000D03*
X201000000Y-61040000D03*
D16*
X203700000Y-65770000D03*
X203700000Y-53770000D03*
D17*
X124500000Y-56500000D03*
D18*
X124500000Y-54000000D03*
D19*
X165880000Y-59620000D03*
X165880000Y-57120000D03*
X170960000Y-59620000D03*
X170960000Y-57120000D03*
X191500000Y-85250000D03*
X191500000Y-82750000D03*
X168420000Y-59620000D03*
X168420000Y-57120000D03*
X188500000Y-80750000D03*
X188500000Y-83250000D03*
X135763000Y-74632500D03*
X135763000Y-77132500D03*
X193820000Y-71050000D03*
X193820000Y-68550000D03*
X191280000Y-66010000D03*
X191280000Y-68510000D03*
X133413500Y-74632500D03*
X133413500Y-77132500D03*
D20*
X172000000Y-94000000D03*
D21*
X169460000Y-94000000D03*
X166920000Y-94000000D03*
D20*
X166500000Y-100500000D03*
D21*
X169040000Y-100500000D03*
X171580000Y-100500000D03*
X174120000Y-100500000D03*
D20*
X158500000Y-92500000D03*
D21*
X155960000Y-92500000D03*
X153420000Y-92500000D03*
X150880000Y-92500000D03*
D20*
X149500000Y-81500000D03*
D21*
X146960000Y-81500000D03*
X144420000Y-81500000D03*
X141880000Y-81500000D03*
D20*
X192500000Y-112000000D03*
D21*
X195040000Y-112000000D03*
X197580000Y-112000000D03*
D22*
X190500000Y-100650000D03*
X190500000Y-103350000D03*
X194500000Y-102650000D03*
X194500000Y-105350000D03*
X194500000Y-95650000D03*
X194500000Y-98350000D03*
X197500000Y-98350000D03*
X197500000Y-95650000D03*
D23*
X163650000Y-105500000D03*
X166350000Y-105500000D03*
X163650000Y-108000000D03*
X166350000Y-108000000D03*
X163650000Y-110500000D03*
X166350000Y-110500000D03*
X144350000Y-77500000D03*
X141650000Y-77500000D03*
X147350000Y-75000000D03*
X144650000Y-75000000D03*
D22*
X194000000Y-116650000D03*
X194000000Y-119350000D03*
X194000000Y-123650000D03*
X194000000Y-126350000D03*
X194000000Y-130650000D03*
X194000000Y-133350000D03*
X194000000Y-137650000D03*
X194000000Y-140350000D03*
D24*
X203600000Y-105850000D03*
X197400000Y-105850000D03*
X203600000Y-102150000D03*
X197400000Y-102150000D03*
X203600000Y-91850000D03*
X197400000Y-91850000D03*
X203600000Y-88150000D03*
X197400000Y-88150000D03*
D25*
X150500000Y-50750000D03*
X150500000Y-52020000D03*
X150500000Y-53290000D03*
X150500000Y-54560000D03*
X150500000Y-55830000D03*
X150500000Y-57100000D03*
X150500000Y-58370000D03*
X150500000Y-59640000D03*
X150500000Y-60910000D03*
X150500000Y-62180000D03*
X150500000Y-63450000D03*
X150500000Y-64720000D03*
X150500000Y-65990000D03*
X150500000Y-67260000D03*
D26*
X147215000Y-68750000D03*
X145945000Y-68750000D03*
X144675000Y-68750000D03*
X143405000Y-68750000D03*
X142135000Y-68750000D03*
X140865000Y-68750000D03*
X139595000Y-68750000D03*
X138325000Y-68750000D03*
X137055000Y-68750000D03*
X135785000Y-68750000D03*
D25*
X132500000Y-67260000D03*
X132500000Y-65990000D03*
X132500000Y-64720000D03*
X132500000Y-63450000D03*
X132500000Y-62180000D03*
X132500000Y-60910000D03*
X132500000Y-59640000D03*
X132500000Y-58370000D03*
X132500000Y-57100000D03*
X132500000Y-55830000D03*
X132500000Y-54560000D03*
X132500000Y-53290000D03*
X132500000Y-52020000D03*
X132500000Y-50750000D03*
D27*
X141200000Y-58450000D03*
D28*
X183275000Y-85540000D03*
X183275000Y-83000000D03*
X183275000Y-80460000D03*
D29*
X174125000Y-83000000D03*
D30*
X171700000Y-80225000D03*
X176550000Y-85775000D03*
X171700000Y-85775000D03*
X176550000Y-80225000D03*
D31*
X170320000Y-52630000D03*
X171600000Y-52630000D03*
X172860000Y-52630000D03*
X174130000Y-52630000D03*
X175410000Y-52630000D03*
X176680000Y-52630000D03*
X177940000Y-52630000D03*
X179220000Y-52630000D03*
X179220000Y-46330000D03*
X177940000Y-46330000D03*
X176680000Y-46330000D03*
X175410000Y-46330000D03*
X174130000Y-46330000D03*
X172860000Y-46330000D03*
X171600000Y-46330000D03*
X170320000Y-46330000D03*
D28*
X186895000Y-71070000D03*
X186895000Y-68530000D03*
X186895000Y-65990000D03*
D29*
X177745000Y-68530000D03*
D30*
X175320000Y-65755000D03*
X180170000Y-71305000D03*
X175320000Y-71305000D03*
X180170000Y-65755000D03*
D32*
X177310000Y-58370000D03*
X182190000Y-58370000D03*
D22*
X156500000Y-55650000D03*
X156500000Y-58350000D03*
X158500000Y-55350000D03*
X158500000Y-52650000D03*
D33*
X211000000Y-72960000D03*
D34*
X211000000Y-75500000D03*
D20*
X165500000Y-47000000D03*
D21*
X162960000Y-47000000D03*
X160420000Y-47000000D03*
D23*
X158350000Y-96500000D03*
X155650000Y-96500000D03*
X158350000Y-98500000D03*
X155650000Y-98500000D03*
D35*
X158975000Y-101475000D03*
X158325000Y-101475000D03*
X157675000Y-101475000D03*
X157025000Y-101475000D03*
X157025000Y-103525000D03*
X157675000Y-103525000D03*
X158325000Y-103525000D03*
X158975000Y-103525000D03*
D36*
X210500000Y-139500000D03*
X118500000Y-139500000D03*
X118500000Y-47500000D03*
X210500000Y-47500000D03*
D22*
X210500000Y-80650000D03*
X210500000Y-83350000D03*
X208000000Y-80650000D03*
X208000000Y-83350000D03*
D20*
X181500000Y-126000000D03*
D21*
X184040000Y-126000000D03*
X186580000Y-126000000D03*
D20*
X181500000Y-130500000D03*
D21*
X184040000Y-130500000D03*
X186580000Y-130500000D03*
D37*
X199000000Y-117500000D03*
D38*
X201000000Y-117500000D03*
X203000000Y-117500000D03*
D37*
X199000000Y-124500000D03*
D38*
X201000000Y-124500000D03*
X203000000Y-124500000D03*
D37*
X199000000Y-131500000D03*
D38*
X201000000Y-131500000D03*
X203000000Y-131500000D03*
D37*
X199000000Y-138500000D03*
D38*
X201000000Y-138500000D03*
X203000000Y-138500000D03*
D20*
X181500000Y-135000000D03*
D21*
X184040000Y-135000000D03*
X186580000Y-135000000D03*
D20*
X181500000Y-139500000D03*
D21*
X184040000Y-139500000D03*
X186580000Y-139500000D03*
D20*
X181500000Y-120000000D03*
D21*
X184040000Y-120000000D03*
X186580000Y-120000000D03*
D39*
X160000000Y-103500000D03*
X167500000Y-53000000D03*
X206500000Y-102500000D03*
X161500000Y-85500000D03*
X156000000Y-84500000D03*
X204500000Y-99000000D03*
X204500000Y-85000000D03*
X157500000Y-49000000D03*
X160500000Y-57000000D03*
X174770000Y-55830000D03*
X170960000Y-65990000D03*
D40*
X197630000Y-68530000D03*
X197630000Y-73610000D03*
D39*
X133858000Y-72644000D03*
X204500000Y-80000000D03*
X137795000Y-74930000D03*
X186000000Y-110500000D03*
X160500000Y-66000000D03*
X136500000Y-52000000D03*
X191500000Y-92000000D03*
X189500000Y-77000000D03*
X173500000Y-54560000D03*
D40*
X162070000Y-57100000D03*
D39*
X190000000Y-52000000D03*
X179000000Y-90000000D03*
X155000000Y-82000000D03*
X194500000Y-89500000D03*
X194500000Y-65000000D03*
X195500000Y-78000000D03*
X188740000Y-54560000D03*
X178580000Y-50750000D03*
X159000000Y-100000000D03*
X154000000Y-97000000D03*
X132207000Y-84074000D03*
X146177000Y-55499000D03*
X131318000Y-70040500D03*
X140335000Y-84455000D03*
X132715000Y-82804000D03*
X147955000Y-57150000D03*
X132842000Y-72199500D03*
X159512000Y-88011000D03*
X175260000Y-117729000D03*
X160528000Y-87503000D03*
X135500000Y-59500000D03*
X136000000Y-61500000D03*
X138500000Y-63000000D03*
X138500000Y-64000000D03*
X190500000Y-137000000D03*
X178181000Y-124587000D03*
X178181000Y-118491000D03*
X164338000Y-87503000D03*
X165100000Y-84582000D03*
X161798000Y-80518000D03*
X173863000Y-114808000D03*
X163830000Y-102870000D03*
X160020000Y-90424000D03*
X158242000Y-88265000D03*
X158242000Y-81534000D03*
X146939000Y-66040000D03*
X167500000Y-52000000D03*
X157000000Y-67500000D03*
X189500000Y-105500000D03*
X191500000Y-98000000D03*
X136500000Y-54000000D03*
X129921000Y-92964000D03*
X125984000Y-68453000D03*
X144526000Y-101219000D03*
X127000000Y-68453000D03*
X156210000Y-110744000D03*
X152146000Y-100838000D03*
X132334000Y-89535000D03*
X128397000Y-70104000D03*
X144000000Y-66000000D03*
X142000000Y-65500000D03*
X143000000Y-73500000D03*
D41*
X201000000Y-117500000D02*
X201000000Y-124500000D01*
X201000000Y-124500000D02*
X201000000Y-131500000D01*
X201000000Y-131500000D02*
X201000000Y-138500000D01*
D42*
X210500000Y-80650000D02*
X210500000Y-78000000D01*
X210500000Y-78000000D02*
X209500000Y-77000000D01*
X184040000Y-139500000D02*
X184040000Y-135000000D01*
X184040000Y-126000000D02*
X184040000Y-130500000D01*
X184040000Y-135000000D02*
X184040000Y-130500000D01*
D43*
X159975000Y-103525000D02*
X158975000Y-103525000D01*
X160000000Y-103500000D02*
X159975000Y-103525000D01*
X158975000Y-103525000D02*
X158975000Y-103025000D01*
X158975000Y-103025000D02*
X158450000Y-102500000D01*
X158450000Y-102500000D02*
X157500000Y-102500000D01*
X157675000Y-103525000D02*
X157675000Y-102675000D01*
X157000000Y-102000000D02*
X157000000Y-101500000D01*
X157500000Y-102500000D02*
X157000000Y-102000000D01*
X157675000Y-102675000D02*
X157500000Y-102500000D01*
X157000000Y-101500000D02*
X157025000Y-101475000D01*
D41*
X197630000Y-68530000D02*
X197630000Y-67370000D01*
X199230000Y-65770000D02*
X203700000Y-65770000D01*
X197630000Y-67370000D02*
X199230000Y-65770000D01*
X197630000Y-73610000D02*
X198610000Y-73610000D01*
X209500000Y-77000000D02*
X211000000Y-75500000D01*
X202000000Y-77000000D02*
X209000000Y-77000000D01*
X209000000Y-77000000D02*
X209500000Y-77000000D01*
X198610000Y-73610000D02*
X202000000Y-77000000D01*
D42*
X168420000Y-53920000D02*
X168420000Y-57120000D01*
X167500000Y-53000000D02*
X168420000Y-53920000D01*
X156000000Y-84500000D02*
X156000000Y-92460000D01*
X156000000Y-92460000D02*
X155960000Y-92500000D01*
X135763000Y-77132500D02*
X141282500Y-77132500D01*
X141282500Y-77132500D02*
X141650000Y-77500000D01*
X135763000Y-77132500D02*
X133413500Y-77132500D01*
X118956000Y-97028000D02*
X118956000Y-87419000D01*
X122047000Y-84328000D02*
X122047000Y-80945000D01*
X118956000Y-87419000D02*
X122047000Y-84328000D01*
X119788000Y-77135000D02*
X121712000Y-77135000D01*
X122047000Y-77470000D02*
X122047000Y-78451000D01*
X121712000Y-77135000D02*
X122047000Y-77470000D01*
X119788000Y-78405000D02*
X122001000Y-78405000D01*
X122047000Y-78451000D02*
X122047000Y-79883000D01*
X122001000Y-78405000D02*
X122047000Y-78451000D01*
X119788000Y-79675000D02*
X121839000Y-79675000D01*
X122047000Y-79883000D02*
X122047000Y-80945000D01*
X121839000Y-79675000D02*
X122047000Y-79883000D01*
X119788000Y-80945000D02*
X122047000Y-80945000D01*
X122047000Y-80945000D02*
X129212000Y-80945000D01*
X129212000Y-78405000D02*
X131572000Y-78405000D01*
X131572000Y-78405000D02*
X131572000Y-78359000D01*
X129212000Y-80945000D02*
X131272000Y-80945000D01*
X131572000Y-80645000D02*
X131572000Y-79502000D01*
X131272000Y-80945000D02*
X131572000Y-80645000D01*
X129212000Y-79675000D02*
X131399000Y-79675000D01*
X131572000Y-79502000D02*
X131572000Y-78359000D01*
X131572000Y-78359000D02*
X131572000Y-77689000D01*
X131399000Y-79675000D02*
X131572000Y-79502000D01*
X131572000Y-77689000D02*
X131572000Y-77132500D01*
X129212000Y-75865000D02*
X131237000Y-75865000D01*
X131572000Y-76200000D02*
X131572000Y-77132500D01*
X131237000Y-75865000D02*
X131572000Y-76200000D01*
X133413500Y-77132500D02*
X131572000Y-77132500D01*
X131572000Y-77132500D02*
X129214500Y-77132500D01*
X129214500Y-77132500D02*
X129212000Y-77135000D01*
D41*
X206500000Y-102500000D02*
X203950000Y-102500000D01*
X203950000Y-102500000D02*
X203600000Y-102150000D01*
X203600000Y-102150000D02*
X203750000Y-102000000D01*
D44*
X201000000Y-58500000D02*
X203000000Y-58500000D01*
X203000000Y-58500000D02*
X203700000Y-58500000D01*
X203700000Y-53770000D02*
X203700000Y-58500000D01*
X203700000Y-58500000D02*
X203700000Y-65770000D01*
D45*
X132500000Y-50750000D02*
X127750000Y-50750000D01*
X127750000Y-50750000D02*
X124500000Y-54000000D01*
D42*
X141880000Y-81500000D02*
X141880000Y-82880000D01*
X164000000Y-83000000D02*
X174125000Y-83000000D01*
X161500000Y-85500000D02*
X164000000Y-83000000D01*
X143500000Y-84500000D02*
X156000000Y-84500000D01*
X141880000Y-82880000D02*
X143500000Y-84500000D01*
X141650000Y-77500000D02*
X141650000Y-81270000D01*
X141650000Y-81270000D02*
X141880000Y-81500000D01*
X135785000Y-68750000D02*
X135785000Y-66715000D01*
X141200000Y-64300000D02*
X141200000Y-58450000D01*
X139500000Y-66000000D02*
X141200000Y-64300000D01*
X136500000Y-66000000D02*
X139500000Y-66000000D01*
X135785000Y-66715000D02*
X136500000Y-66000000D01*
D41*
X197400000Y-102150000D02*
X197400000Y-101100000D01*
X198500000Y-100000000D02*
X203600000Y-100000000D01*
X197400000Y-101100000D02*
X198500000Y-100000000D01*
X202500000Y-86000000D02*
X203500000Y-86000000D01*
X203600000Y-99900000D02*
X203600000Y-100000000D01*
X203600000Y-100000000D02*
X203600000Y-102150000D01*
X204500000Y-99000000D02*
X203600000Y-99900000D01*
X203500000Y-86000000D02*
X204500000Y-85000000D01*
D44*
X203600000Y-88150000D02*
X203600000Y-87100000D01*
X200500000Y-84000000D02*
X197400000Y-84000000D01*
X203600000Y-87100000D02*
X202500000Y-86000000D01*
X202500000Y-86000000D02*
X200500000Y-84000000D01*
X197400000Y-88150000D02*
X197400000Y-84000000D01*
X197400000Y-84000000D02*
X197400000Y-74000000D01*
X197400000Y-74000000D02*
X197400000Y-73610000D01*
X197400000Y-73610000D02*
X197630000Y-73610000D01*
X193820000Y-68550000D02*
X191320000Y-68550000D01*
X191320000Y-68550000D02*
X191280000Y-68510000D01*
X193820000Y-68550000D02*
X197500000Y-68550000D01*
X197630000Y-73610000D02*
X195890000Y-73610000D01*
X191500000Y-78000000D02*
X191500000Y-82750000D01*
X195890000Y-73610000D02*
X191500000Y-78000000D01*
X183275000Y-83000000D02*
X174125000Y-83000000D01*
X174125000Y-83000000D02*
X174125000Y-72150000D01*
X174125000Y-72150000D02*
X177745000Y-68530000D01*
D41*
X183275000Y-83000000D02*
X188250000Y-83000000D01*
X188250000Y-83000000D02*
X188500000Y-83250000D01*
X188500000Y-83250000D02*
X190250000Y-83250000D01*
X190250000Y-83250000D02*
X190750000Y-82750000D01*
X190750000Y-82750000D02*
X191500000Y-82750000D01*
D44*
X180500000Y-71285000D02*
X177745000Y-68530000D01*
D45*
X141200000Y-58450000D02*
X141200000Y-50750000D01*
X141200000Y-50750000D02*
X140500000Y-50750000D01*
X150500000Y-50750000D02*
X141500000Y-50750000D01*
X141500000Y-50750000D02*
X140500000Y-50750000D01*
X140500000Y-50750000D02*
X132500000Y-50750000D01*
D41*
X141200000Y-56300000D02*
X141200000Y-58450000D01*
X160150000Y-62000000D02*
X160150000Y-57350000D01*
D42*
X155750000Y-50750000D02*
X150500000Y-50750000D01*
X157500000Y-49000000D02*
X155750000Y-50750000D01*
D41*
X160150000Y-57350000D02*
X160500000Y-57000000D01*
D44*
X170960000Y-65990000D02*
X170960000Y-65460000D01*
D41*
X160150000Y-62000000D02*
X156500000Y-58350000D01*
D44*
X167500000Y-62000000D02*
X160150000Y-62000000D01*
X170960000Y-65460000D02*
X167500000Y-62000000D01*
X177745000Y-68530000D02*
X173500000Y-68530000D01*
D41*
X173500000Y-68530000D02*
X170960000Y-65990000D01*
X173480000Y-57120000D02*
X170960000Y-57120000D01*
X174770000Y-55830000D02*
X173480000Y-57120000D01*
D44*
X186895000Y-68530000D02*
X177745000Y-68530000D01*
D42*
X165880000Y-57120000D02*
X168420000Y-57120000D01*
X168420000Y-57120000D02*
X170960000Y-57120000D01*
X170320000Y-52630000D02*
X170320000Y-55190000D01*
X170960000Y-55830000D02*
X170960000Y-57120000D01*
X170320000Y-55190000D02*
X170960000Y-55830000D01*
D44*
X197610000Y-68550000D02*
X197500000Y-68550000D01*
D41*
X197630000Y-68530000D02*
X197610000Y-68550000D01*
X191320000Y-68550000D02*
X191300000Y-68530000D01*
D44*
X191300000Y-68530000D02*
X186895000Y-68530000D01*
D42*
X129212000Y-74595000D02*
X133376000Y-74595000D01*
X133376000Y-74595000D02*
X133413500Y-74632500D01*
X133413500Y-73088500D02*
X133413500Y-74632500D01*
X133858000Y-72644000D02*
X133413500Y-73088500D01*
X206000000Y-80000000D02*
X207350000Y-80000000D01*
X204500000Y-80000000D02*
X206000000Y-80000000D01*
X207350000Y-80000000D02*
X208000000Y-80650000D01*
D43*
X157675000Y-101475000D02*
X157675000Y-100675000D01*
X156500000Y-104500000D02*
X157500000Y-104500000D01*
X156000000Y-104000000D02*
X156500000Y-104500000D01*
X156000000Y-103500000D02*
X156000000Y-104000000D01*
X155500000Y-103000000D02*
X156000000Y-103500000D01*
X155500000Y-101000000D02*
X155500000Y-103000000D01*
X156000000Y-100500000D02*
X155500000Y-101000000D01*
X157500000Y-100500000D02*
X156000000Y-100500000D01*
X157675000Y-100675000D02*
X157500000Y-100500000D01*
X158350000Y-98500000D02*
X158500000Y-98500000D01*
X158500000Y-98500000D02*
X160000000Y-100000000D01*
X160324998Y-104500000D02*
X158000000Y-104500000D01*
X161000000Y-103824998D02*
X160324998Y-104500000D01*
X161000000Y-102500000D02*
X161000000Y-103824998D01*
X160000000Y-101500000D02*
X161000000Y-102500000D01*
X160000000Y-100000000D02*
X160000000Y-101500000D01*
X158325000Y-103525000D02*
X158325000Y-104175000D01*
X157025000Y-104025000D02*
X157025000Y-103525000D01*
X157500000Y-104500000D02*
X157025000Y-104025000D01*
X158000000Y-104500000D02*
X157500000Y-104500000D01*
X158325000Y-104175000D02*
X158000000Y-104500000D01*
D41*
X158350000Y-96500000D02*
X158350000Y-92650000D01*
X158350000Y-92650000D02*
X158500000Y-92500000D01*
X158350000Y-96500000D02*
X158350000Y-98500000D01*
D42*
X172000000Y-94000000D02*
X186500000Y-94000000D01*
X186500000Y-94000000D02*
X189500000Y-97000000D01*
X135763000Y-74632500D02*
X137497500Y-74632500D01*
X137497500Y-74632500D02*
X137795000Y-74930000D01*
X158500000Y-92500000D02*
X158500000Y-89785000D01*
X172000000Y-92625000D02*
X172000000Y-94000000D01*
X171069000Y-91694000D02*
X172000000Y-92625000D01*
X169694000Y-91694000D02*
X171069000Y-91694000D01*
X167154000Y-89154000D02*
X169694000Y-91694000D01*
X159131000Y-89154000D02*
X167154000Y-89154000D01*
X158500000Y-89785000D02*
X159131000Y-89154000D01*
X119788000Y-73325000D02*
X122890000Y-73325000D01*
X124500000Y-71715000D02*
X124500000Y-56500000D01*
X122890000Y-73325000D02*
X124500000Y-71715000D01*
X186000000Y-108000000D02*
X186000000Y-110500000D01*
D45*
X124500000Y-56500000D02*
X125500000Y-56500000D01*
X130480000Y-52020000D02*
X132500000Y-52020000D01*
X129000000Y-53500000D02*
X130480000Y-52020000D01*
X128500000Y-53500000D02*
X129000000Y-53500000D01*
X125500000Y-56500000D02*
X128500000Y-53500000D01*
D41*
X190500000Y-100650000D02*
X187350000Y-100650000D01*
X197580000Y-110580000D02*
X197580000Y-112000000D01*
X196500000Y-109500000D02*
X197580000Y-110580000D01*
X187500000Y-109500000D02*
X196500000Y-109500000D01*
X186000000Y-108000000D02*
X187500000Y-109500000D01*
X186000000Y-102000000D02*
X186000000Y-104000000D01*
X186000000Y-104000000D02*
X186000000Y-108000000D01*
X187350000Y-100650000D02*
X186000000Y-102000000D01*
X191500000Y-92000000D02*
X191500000Y-95000000D01*
X191500000Y-95000000D02*
X189500000Y-97000000D01*
X189500000Y-99650000D02*
X190500000Y-100650000D01*
X189500000Y-97000000D02*
X189500000Y-99650000D01*
D45*
X136480000Y-52020000D02*
X132500000Y-52020000D01*
X136500000Y-52000000D02*
X136480000Y-52020000D01*
D44*
X188500000Y-80750000D02*
X188500000Y-78000000D01*
X191500000Y-92000000D02*
X194500000Y-95000000D01*
X188500000Y-78000000D02*
X189500000Y-77000000D01*
X194500000Y-95000000D02*
X194500000Y-95650000D01*
D41*
X183275000Y-80460000D02*
X188210000Y-80460000D01*
X188210000Y-80460000D02*
X188500000Y-80750000D01*
D42*
X165880000Y-59620000D02*
X163320000Y-59620000D01*
D45*
X174130000Y-53930000D02*
X174130000Y-52630000D01*
X173500000Y-54560000D02*
X174130000Y-53930000D01*
D42*
X162070000Y-58370000D02*
X162070000Y-57100000D01*
X163320000Y-59620000D02*
X162070000Y-58370000D01*
X177310000Y-58370000D02*
X173500000Y-58370000D01*
X172250000Y-59620000D02*
X170960000Y-59620000D01*
X173500000Y-58370000D02*
X172250000Y-59620000D01*
X177940000Y-52630000D02*
X177940000Y-57740000D01*
X177940000Y-57740000D02*
X177310000Y-58370000D01*
D41*
X190600080Y-48000000D02*
X189000000Y-48000000D01*
X189500000Y-52000000D02*
X190000000Y-52000000D01*
X188000000Y-50500000D02*
X189500000Y-52000000D01*
X188000000Y-49000000D02*
X188000000Y-50500000D01*
X189000000Y-48000000D02*
X188000000Y-49000000D01*
D42*
X192500000Y-112000000D02*
X186000000Y-112000000D01*
X181500000Y-116500000D02*
X181500000Y-120000000D01*
X186000000Y-112000000D02*
X181500000Y-116500000D01*
X149500000Y-81500000D02*
X154500000Y-81500000D01*
X186000000Y-89000000D02*
X186000000Y-85540000D01*
X180000000Y-89000000D02*
X186000000Y-89000000D01*
X179000000Y-90000000D02*
X180000000Y-89000000D01*
X154500000Y-81500000D02*
X155000000Y-82000000D01*
X186000000Y-85540000D02*
X186000000Y-86000000D01*
X186000000Y-86000000D02*
X186000000Y-85540000D01*
D41*
X194500000Y-89500000D02*
X191500000Y-86500000D01*
X191500000Y-86500000D02*
X191500000Y-85250000D01*
D44*
X191500000Y-85250000D02*
X192250000Y-85250000D01*
X193490000Y-66010000D02*
X191280000Y-66010000D01*
X194500000Y-65000000D02*
X193490000Y-66010000D01*
X195500000Y-82000000D02*
X195500000Y-78000000D01*
X192250000Y-85250000D02*
X195500000Y-82000000D01*
D41*
X183275000Y-85540000D02*
X186000000Y-85540000D01*
X186000000Y-85540000D02*
X191210000Y-85540000D01*
X191210000Y-85540000D02*
X191500000Y-85250000D01*
D44*
X191280000Y-65780000D02*
X191280000Y-66010000D01*
D41*
X191280000Y-66010000D02*
X186915000Y-66010000D01*
X186915000Y-66010000D02*
X186895000Y-65990000D01*
D42*
X181120000Y-58370000D02*
X178580000Y-60910000D01*
X178580000Y-60910000D02*
X174770000Y-60910000D01*
X182190000Y-58370000D02*
X181120000Y-58370000D01*
X179220000Y-56470000D02*
X179220000Y-52630000D01*
X181120000Y-58370000D02*
X179220000Y-56470000D01*
X168420000Y-60910000D02*
X168420000Y-59620000D01*
X169690000Y-62180000D02*
X168420000Y-60910000D01*
X172230000Y-62180000D02*
X169690000Y-62180000D01*
X173500000Y-60910000D02*
X172230000Y-62180000D01*
X174770000Y-60910000D02*
X173500000Y-60910000D01*
D41*
X193820000Y-71050000D02*
X197450000Y-71050000D01*
X198000000Y-70500000D02*
X200100080Y-70500000D01*
X197450000Y-71050000D02*
X198000000Y-70500000D01*
D44*
X186895000Y-71070000D02*
X193800000Y-71070000D01*
D41*
X193800000Y-71070000D02*
X193820000Y-71050000D01*
D45*
X190010000Y-55830000D02*
X192830000Y-55830000D01*
X178580000Y-50750000D02*
X177310000Y-50750000D01*
X177310000Y-50750000D02*
X176680000Y-51380000D01*
X176680000Y-52630000D02*
X176680000Y-51380000D01*
X190010000Y-55830000D02*
X188740000Y-54560000D01*
X198040000Y-61040000D02*
X199000000Y-61040000D01*
X192830000Y-55830000D02*
X198040000Y-61040000D01*
D41*
X199000000Y-58500000D02*
X193790000Y-53290000D01*
X194399920Y-48000000D02*
X194399920Y-52680080D01*
X194399920Y-52680080D02*
X193790000Y-53290000D01*
D45*
X190000000Y-53290000D02*
X193790000Y-53290000D01*
X190010000Y-53290000D02*
X190000000Y-53290000D01*
X190000000Y-53290000D02*
X187470000Y-53290000D01*
X170320000Y-47570000D02*
X170320000Y-46330000D01*
X170960000Y-48210000D02*
X170320000Y-47570000D01*
X182390000Y-48210000D02*
X170960000Y-48210000D01*
X187470000Y-53290000D02*
X182390000Y-48210000D01*
X175410000Y-52630000D02*
X175410000Y-51090000D01*
X201000000Y-62500000D02*
X201000000Y-61040000D01*
X200500000Y-63000000D02*
X201000000Y-62500000D01*
X195500000Y-63000000D02*
X200500000Y-63000000D01*
X182000000Y-49500000D02*
X195500000Y-63000000D01*
X177000000Y-49500000D02*
X182000000Y-49500000D01*
X175410000Y-51090000D02*
X177000000Y-49500000D01*
D42*
X169040000Y-100500000D02*
X169040000Y-94420000D01*
X169040000Y-94420000D02*
X169460000Y-94000000D01*
X166350000Y-105500000D02*
X166350000Y-100650000D01*
D45*
X166350000Y-100650000D02*
X166500000Y-100500000D01*
D42*
X166350000Y-108000000D02*
X168000000Y-108000000D01*
X171580000Y-104420000D02*
X171580000Y-100500000D01*
X168000000Y-108000000D02*
X171580000Y-104420000D01*
X166350000Y-110500000D02*
X169500000Y-110500000D01*
X174120000Y-105880000D02*
X174120000Y-100500000D01*
X169500000Y-110500000D02*
X174120000Y-105880000D01*
D43*
X154750000Y-95750000D02*
X154000000Y-96500000D01*
X158975000Y-100025000D02*
X158975000Y-101475000D01*
X159000000Y-100000000D02*
X158975000Y-100025000D01*
X154000000Y-96500000D02*
X154000000Y-97000000D01*
D41*
X155650000Y-96500000D02*
X155500000Y-96500000D01*
X155500000Y-96500000D02*
X154750000Y-95750000D01*
X154750000Y-95750000D02*
X153420000Y-94420000D01*
X153420000Y-94420000D02*
X153420000Y-92500000D01*
D42*
X153420000Y-89666000D02*
X153420000Y-92500000D01*
X149733000Y-85979000D02*
X153420000Y-89666000D01*
X134112000Y-85979000D02*
X149733000Y-85979000D01*
X132207000Y-84074000D02*
X134112000Y-85979000D01*
X129212000Y-72055000D02*
X130954500Y-72055000D01*
X148513000Y-53290000D02*
X150500000Y-53290000D01*
X148145500Y-53657500D02*
X148513000Y-53290000D01*
X148018500Y-53657500D02*
X148145500Y-53657500D01*
X146177000Y-55499000D02*
X148018500Y-53657500D01*
X131318000Y-71691500D02*
X131318000Y-70040500D01*
X130954500Y-72055000D02*
X131318000Y-71691500D01*
D43*
X155650000Y-98500000D02*
X155650000Y-99150000D01*
X155650000Y-99150000D02*
X156500000Y-100000000D01*
X158325000Y-100325000D02*
X158325000Y-101475000D01*
X158000000Y-100000000D02*
X158325000Y-100325000D01*
X156500000Y-100000000D02*
X158000000Y-100000000D01*
D41*
X155650000Y-98500000D02*
X153000000Y-98500000D01*
X150880000Y-96380000D02*
X150880000Y-92500000D01*
X153000000Y-98500000D02*
X150880000Y-96380000D01*
D42*
X134366000Y-84455000D02*
X140335000Y-84455000D01*
X132715000Y-82804000D02*
X134366000Y-84455000D01*
X129212000Y-73325000D02*
X131716500Y-73325000D01*
X148005000Y-57100000D02*
X150500000Y-57100000D01*
X147955000Y-57150000D02*
X148005000Y-57100000D01*
X131716500Y-73325000D02*
X132842000Y-72199500D01*
X150500000Y-57100000D02*
X150400000Y-57000000D01*
X150500000Y-65990000D02*
X157557000Y-65990000D01*
X159512000Y-67945000D02*
X159512000Y-88011000D01*
X157557000Y-65990000D02*
X159512000Y-67945000D01*
X150500000Y-64720000D02*
X157684000Y-64720000D01*
X175133000Y-123571000D02*
X181500000Y-129938000D01*
X175133000Y-117856000D02*
X175133000Y-123571000D01*
X175260000Y-117729000D02*
X175133000Y-117856000D01*
X160528000Y-67564000D02*
X160528000Y-87503000D01*
X157684000Y-64720000D02*
X160528000Y-67564000D01*
X181500000Y-129938000D02*
X181500000Y-130500000D01*
X194000000Y-119350000D02*
X195850000Y-117500000D01*
X195850000Y-117500000D02*
X199000000Y-117500000D01*
X132500000Y-59640000D02*
X135360000Y-59640000D01*
X135360000Y-59640000D02*
X135500000Y-59500000D01*
X194000000Y-116650000D02*
X192850000Y-116650000D01*
X192000000Y-117500000D02*
X192000000Y-125000000D01*
X192850000Y-116650000D02*
X192000000Y-117500000D01*
X194000000Y-123650000D02*
X192850000Y-123650000D01*
X192850000Y-123650000D02*
X192000000Y-124500000D01*
X192000000Y-124500000D02*
X192000000Y-125000000D01*
X192000000Y-125000000D02*
X192000000Y-131500000D01*
X194000000Y-116650000D02*
X194000000Y-114500000D01*
X194000000Y-114500000D02*
X195500000Y-113000000D01*
X194000000Y-130650000D02*
X192850000Y-130650000D01*
X193150000Y-137650000D02*
X194000000Y-137650000D01*
X192000000Y-136500000D02*
X193150000Y-137650000D01*
X192000000Y-131500000D02*
X192000000Y-136500000D01*
X192850000Y-130650000D02*
X192000000Y-131500000D01*
X194000000Y-137650000D02*
X193650000Y-137650000D01*
D41*
X195040000Y-112000000D02*
X195040000Y-112540000D01*
X195040000Y-112540000D02*
X195500000Y-113000000D01*
X195500000Y-113000000D02*
X197000000Y-114500000D01*
X197000000Y-114500000D02*
X201500000Y-114500000D01*
X201500000Y-114500000D02*
X203000000Y-116000000D01*
X203000000Y-116000000D02*
X203000000Y-117500000D01*
X203000000Y-124500000D02*
X203000000Y-131500000D01*
X203000000Y-138500000D02*
X203000000Y-131500000D01*
X203000000Y-117500000D02*
X203000000Y-124500000D01*
D42*
X194000000Y-126350000D02*
X194150000Y-126500000D01*
X194150000Y-126500000D02*
X197000000Y-126500000D01*
X197000000Y-126500000D02*
X199000000Y-124500000D01*
X135410000Y-60910000D02*
X136000000Y-61500000D01*
X132500000Y-60910000D02*
X135410000Y-60910000D01*
X194350000Y-126350000D02*
X194000000Y-126350000D01*
X194000000Y-133350000D02*
X197739000Y-133350000D01*
X197739000Y-133350000D02*
X199000000Y-132089000D01*
X199000000Y-132089000D02*
X199000000Y-131500000D01*
X132500000Y-62180000D02*
X135180000Y-62180000D01*
X136000000Y-63000000D02*
X138500000Y-63000000D01*
X135180000Y-62180000D02*
X136000000Y-63000000D01*
X194000000Y-133350000D02*
X194150000Y-133500000D01*
X194000000Y-133500000D02*
X194000000Y-133350000D01*
X194000000Y-140350000D02*
X194850000Y-139500000D01*
X198000000Y-139500000D02*
X199000000Y-138500000D01*
X194850000Y-139500000D02*
X198000000Y-139500000D01*
X191000000Y-141000000D02*
X193350000Y-141000000D01*
X134450000Y-63450000D02*
X135000000Y-64000000D01*
X135000000Y-64000000D02*
X138500000Y-64000000D01*
X190500000Y-137000000D02*
X190500000Y-140500000D01*
X132500000Y-63450000D02*
X134450000Y-63450000D01*
X190500000Y-140500000D02*
X191000000Y-141000000D01*
X193350000Y-141000000D02*
X194000000Y-140350000D01*
X150500000Y-63450000D02*
X158065000Y-63450000D01*
X178181000Y-118491000D02*
X178181000Y-124587000D01*
X164338000Y-85344000D02*
X164338000Y-87503000D01*
X165100000Y-84582000D02*
X164338000Y-85344000D01*
X161798000Y-65024000D02*
X161798000Y-80518000D01*
X159639000Y-65024000D02*
X161798000Y-65024000D01*
X158065000Y-63450000D02*
X159639000Y-65024000D01*
X174117000Y-132117000D02*
X181500000Y-139500000D01*
X174117000Y-115062000D02*
X174117000Y-132117000D01*
X173863000Y-114808000D02*
X174117000Y-115062000D01*
X160528000Y-99568000D02*
X163830000Y-102870000D01*
X160528000Y-90932000D02*
X160528000Y-99568000D01*
X160020000Y-90424000D02*
X160528000Y-90932000D01*
X158242000Y-81534000D02*
X158242000Y-88265000D01*
X146939000Y-64262000D02*
X146939000Y-66040000D01*
X149021000Y-62180000D02*
X146939000Y-64262000D01*
X150500000Y-62180000D02*
X149021000Y-62180000D01*
D45*
X162960000Y-47000000D02*
X162960000Y-49960000D01*
X162960000Y-49960000D02*
X163750000Y-50750000D01*
X150500000Y-54560000D02*
X154940000Y-54560000D01*
X172860000Y-51360000D02*
X172860000Y-52630000D01*
X171500000Y-50000000D02*
X172860000Y-51360000D01*
X164500000Y-50000000D02*
X171500000Y-50000000D01*
X163500000Y-51000000D02*
X163750000Y-50750000D01*
X163750000Y-50750000D02*
X164500000Y-50000000D01*
X157500000Y-51000000D02*
X163500000Y-51000000D01*
X156500000Y-52000000D02*
X157500000Y-51000000D01*
X156500000Y-53000000D02*
X156500000Y-52000000D01*
X154940000Y-54560000D02*
X156500000Y-53000000D01*
X167500000Y-52000000D02*
X168500000Y-51000000D01*
X171600000Y-52630000D02*
X171600000Y-52100000D01*
X171600000Y-52100000D02*
X170500000Y-51000000D01*
X170500000Y-51000000D02*
X168500000Y-51000000D01*
X168500000Y-51000000D02*
X167500000Y-51000000D01*
X167500000Y-51000000D02*
X165500000Y-51000000D01*
X165500000Y-51000000D02*
X163850000Y-52650000D01*
X163850000Y-52650000D02*
X158500000Y-52650000D01*
D42*
X190500000Y-103350000D02*
X190500000Y-104500000D01*
X156760000Y-67260000D02*
X150500000Y-67260000D01*
X157000000Y-67500000D02*
X156760000Y-67260000D01*
X190500000Y-104500000D02*
X189500000Y-105500000D01*
D41*
X194500000Y-102650000D02*
X191200000Y-102650000D01*
X191200000Y-102650000D02*
X190500000Y-103350000D01*
D42*
X132500000Y-53290000D02*
X135790000Y-53290000D01*
X191850000Y-98350000D02*
X194500000Y-98350000D01*
X191500000Y-98000000D02*
X191850000Y-98350000D01*
X135790000Y-53290000D02*
X136500000Y-54000000D01*
D44*
X197500000Y-98350000D02*
X194500000Y-98350000D01*
D41*
X197400000Y-105850000D02*
X195000000Y-105850000D01*
X195000000Y-105850000D02*
X194500000Y-105350000D01*
X203600000Y-105850000D02*
X203600000Y-105900000D01*
X203600000Y-105900000D02*
X201500000Y-108000000D01*
X201500000Y-108000000D02*
X199550000Y-108000000D01*
X199550000Y-108000000D02*
X197400000Y-105850000D01*
D44*
X203600000Y-91850000D02*
X197400000Y-91850000D01*
X197500000Y-95650000D02*
X197500000Y-91950000D01*
X197500000Y-91950000D02*
X197400000Y-91850000D01*
D42*
X132500000Y-64720000D02*
X127050000Y-64720000D01*
X152744000Y-105500000D02*
X163650000Y-105500000D01*
X141097000Y-93853000D02*
X152744000Y-105500000D01*
X130810000Y-93853000D02*
X141097000Y-93853000D01*
X129921000Y-92964000D02*
X130810000Y-93853000D01*
X125984000Y-65786000D02*
X125984000Y-68453000D01*
X127050000Y-64720000D02*
X125984000Y-65786000D01*
X132500000Y-65990000D02*
X127431000Y-65990000D01*
X150876000Y-107569000D02*
X163219000Y-107569000D01*
X144526000Y-101219000D02*
X150876000Y-107569000D01*
X127000000Y-66421000D02*
X127000000Y-68453000D01*
X127431000Y-65990000D02*
X127000000Y-66421000D01*
X163219000Y-107569000D02*
X163650000Y-108000000D01*
X132500000Y-67260000D02*
X129844000Y-67260000D01*
X156454000Y-110500000D02*
X163650000Y-110500000D01*
X156210000Y-110744000D02*
X156454000Y-110500000D01*
X142875000Y-91567000D02*
X152146000Y-100838000D01*
X134366000Y-91567000D02*
X142875000Y-91567000D01*
X132334000Y-89535000D02*
X134366000Y-91567000D01*
X128397000Y-68707000D02*
X128397000Y-70104000D01*
X129844000Y-67260000D02*
X128397000Y-68707000D01*
X147350000Y-75000000D02*
X147350000Y-81110000D01*
X147350000Y-81110000D02*
X146960000Y-81500000D01*
D43*
X147350000Y-81110000D02*
X146960000Y-81500000D01*
D45*
X150500000Y-60910000D02*
X150410000Y-61000000D01*
X150410000Y-61000000D02*
X148500000Y-61000000D01*
X148500000Y-61000000D02*
X148500000Y-61500000D01*
X148500000Y-61500000D02*
X144000000Y-66000000D01*
X150500000Y-59640000D02*
X150360000Y-59500000D01*
X150360000Y-59500000D02*
X146500000Y-59500000D01*
X146500000Y-59500000D02*
X146500000Y-61000000D01*
X146500000Y-61000000D02*
X144000000Y-63500000D01*
X144000000Y-63500000D02*
X143500000Y-63500000D01*
X143500000Y-63500000D02*
X143500000Y-64000000D01*
X143500000Y-64000000D02*
X142000000Y-65500000D01*
X143000000Y-73500000D02*
X143150000Y-73500000D01*
X143150000Y-73500000D02*
X144650000Y-75000000D01*
D42*
X144650000Y-75000000D02*
X144650000Y-77200000D01*
X144650000Y-77200000D02*
X144350000Y-77500000D01*
D45*
X150500000Y-55830000D02*
X156320000Y-55830000D01*
X156320000Y-55830000D02*
X156500000Y-55650000D01*
X156500000Y-55650000D02*
X158200000Y-55650000D01*
X158200000Y-55650000D02*
X158500000Y-55350000D01*
D42*
X186580000Y-139500000D02*
X186580000Y-135000000D01*
X186580000Y-135000000D02*
X186580000Y-130500000D01*
X186580000Y-130500000D02*
X186580000Y-126000000D01*
D41*
X203899920Y-70500000D02*
X208540000Y-70500000D01*
X208540000Y-70500000D02*
X211000000Y-72960000D01*
D42*
X208000000Y-83350000D02*
X210500000Y-83350000D01*
M02*
