G04 #@! TF.FileFunction,Soldermask,Top*
%FSLAX46Y46*%
G04 Gerber Fmt 4.6, Leading zero omitted, Abs format (unit mm)*
G04 Created by KiCad (PCBNEW 4.0.7) date 11/23/17 20:16:06*
%MOMM*%
%LPD*%
G01*
G04 APERTURE LIST*
%ADD10C,0.100000*%
%ADD11C,3.400000*%
%ADD12R,3.400000X3.400000*%
%ADD13R,2.000200X2.599640*%
%ADD14R,2.325000X1.050000*%
%ADD15C,1.920000*%
%ADD16C,3.100000*%
%ADD17R,2.000000X2.000000*%
%ADD18C,2.000000*%
%ADD19R,1.650000X1.900000*%
%ADD20R,2.100000X2.100000*%
%ADD21O,2.100000X2.100000*%
%ADD22R,1.700000X1.900000*%
%ADD23R,1.900000X1.700000*%
%ADD24R,2.200000X1.500000*%
%ADD25O,2.900000X1.300000*%
%ADD26O,1.300000X2.900000*%
%ADD27R,6.400000X6.400000*%
%ADD28R,5.000000X1.500000*%
%ADD29R,9.800000X11.200000*%
%ADD30R,1.200000X1.700000*%
%ADD31C,1.900000*%
%ADD32O,2.398980X2.398980*%
%ADD33R,2.398980X2.398980*%
%ADD34C,1.500000*%
%ADD35R,0.750000X0.900000*%
%ADD36C,6.100000*%
%ADD37R,1.600000X2.100000*%
%ADD38O,1.600000X2.100000*%
G04 APERTURE END LIST*
D10*
D11*
X118956000Y-97028000D03*
D12*
X139446000Y-97028000D03*
D13*
X190600080Y-48000000D03*
X194399920Y-48000000D03*
X200100080Y-70500000D03*
X203899920Y-70500000D03*
D14*
X119788000Y-72055000D03*
X119788000Y-73325000D03*
X119788000Y-74595000D03*
X119788000Y-75865000D03*
X119788000Y-77135000D03*
X119788000Y-78405000D03*
X119788000Y-79675000D03*
X119788000Y-80945000D03*
X129212000Y-80945000D03*
X129212000Y-79675000D03*
X129212000Y-78405000D03*
X129212000Y-77135000D03*
X129212000Y-75865000D03*
X129212000Y-74595000D03*
X129212000Y-73325000D03*
X129212000Y-72055000D03*
D15*
X199000000Y-61040000D03*
X199000000Y-58500000D03*
X201000000Y-58500000D03*
X201000000Y-61040000D03*
D16*
X203700000Y-65770000D03*
X203700000Y-53770000D03*
D17*
X124500000Y-56500000D03*
D18*
X124500000Y-54000000D03*
D19*
X165880000Y-59620000D03*
X165880000Y-57120000D03*
X170960000Y-59620000D03*
X170960000Y-57120000D03*
X191500000Y-85250000D03*
X191500000Y-82750000D03*
X168420000Y-59620000D03*
X168420000Y-57120000D03*
X188500000Y-80750000D03*
X188500000Y-83250000D03*
X135763000Y-74632500D03*
X135763000Y-77132500D03*
X193820000Y-71050000D03*
X193820000Y-68550000D03*
X191280000Y-66010000D03*
X191280000Y-68510000D03*
X133413500Y-74632500D03*
X133413500Y-77132500D03*
D20*
X172000000Y-94000000D03*
D21*
X169460000Y-94000000D03*
X166920000Y-94000000D03*
D20*
X166500000Y-100500000D03*
D21*
X169040000Y-100500000D03*
X171580000Y-100500000D03*
X174120000Y-100500000D03*
D20*
X158500000Y-92500000D03*
D21*
X155960000Y-92500000D03*
X153420000Y-92500000D03*
X150880000Y-92500000D03*
D20*
X149500000Y-81500000D03*
D21*
X146960000Y-81500000D03*
X144420000Y-81500000D03*
X141880000Y-81500000D03*
D20*
X192500000Y-112000000D03*
D21*
X195040000Y-112000000D03*
X197580000Y-112000000D03*
D22*
X190500000Y-100650000D03*
X190500000Y-103350000D03*
X194500000Y-102650000D03*
X194500000Y-105350000D03*
X194500000Y-95650000D03*
X194500000Y-98350000D03*
X197500000Y-98350000D03*
X197500000Y-95650000D03*
D23*
X163650000Y-105500000D03*
X166350000Y-105500000D03*
X163650000Y-108000000D03*
X166350000Y-108000000D03*
X163650000Y-110500000D03*
X166350000Y-110500000D03*
X144350000Y-77500000D03*
X141650000Y-77500000D03*
X147350000Y-75000000D03*
X144650000Y-75000000D03*
D22*
X194000000Y-116650000D03*
X194000000Y-119350000D03*
X194000000Y-123650000D03*
X194000000Y-126350000D03*
X194000000Y-130650000D03*
X194000000Y-133350000D03*
X194000000Y-137650000D03*
X194000000Y-140350000D03*
D24*
X203600000Y-105850000D03*
X197400000Y-105850000D03*
X203600000Y-102150000D03*
X197400000Y-102150000D03*
X203600000Y-91850000D03*
X197400000Y-91850000D03*
X203600000Y-88150000D03*
X197400000Y-88150000D03*
D25*
X150500000Y-50750000D03*
X150500000Y-52020000D03*
X150500000Y-53290000D03*
X150500000Y-54560000D03*
X150500000Y-55830000D03*
X150500000Y-57100000D03*
X150500000Y-58370000D03*
X150500000Y-59640000D03*
X150500000Y-60910000D03*
X150500000Y-62180000D03*
X150500000Y-63450000D03*
X150500000Y-64720000D03*
X150500000Y-65990000D03*
X150500000Y-67260000D03*
D26*
X147215000Y-68750000D03*
X145945000Y-68750000D03*
X144675000Y-68750000D03*
X143405000Y-68750000D03*
X142135000Y-68750000D03*
X140865000Y-68750000D03*
X139595000Y-68750000D03*
X138325000Y-68750000D03*
X137055000Y-68750000D03*
X135785000Y-68750000D03*
D25*
X132500000Y-67260000D03*
X132500000Y-65990000D03*
X132500000Y-64720000D03*
X132500000Y-63450000D03*
X132500000Y-62180000D03*
X132500000Y-60910000D03*
X132500000Y-59640000D03*
X132500000Y-58370000D03*
X132500000Y-57100000D03*
X132500000Y-55830000D03*
X132500000Y-54560000D03*
X132500000Y-53290000D03*
X132500000Y-52020000D03*
X132500000Y-50750000D03*
D27*
X141200000Y-58450000D03*
D28*
X183275000Y-85540000D03*
X183275000Y-83000000D03*
X183275000Y-80460000D03*
D29*
X174125000Y-83000000D03*
D30*
X170320000Y-52630000D03*
X171600000Y-52630000D03*
X172860000Y-52630000D03*
X174130000Y-52630000D03*
X175410000Y-52630000D03*
X176680000Y-52630000D03*
X177940000Y-52630000D03*
X179220000Y-52630000D03*
X179220000Y-46330000D03*
X177940000Y-46330000D03*
X176680000Y-46330000D03*
X175410000Y-46330000D03*
X174130000Y-46330000D03*
X172860000Y-46330000D03*
X171600000Y-46330000D03*
X170320000Y-46330000D03*
D28*
X186895000Y-71070000D03*
X186895000Y-68530000D03*
X186895000Y-65990000D03*
D29*
X177745000Y-68530000D03*
D31*
X177310000Y-58370000D03*
X182190000Y-58370000D03*
D22*
X156500000Y-55650000D03*
X156500000Y-58350000D03*
X158500000Y-55350000D03*
X158500000Y-52650000D03*
D32*
X211000000Y-72960000D03*
D33*
X211000000Y-75500000D03*
D34*
X213540000Y-75500000D03*
X213540000Y-72960000D03*
D20*
X165500000Y-47000000D03*
D21*
X162960000Y-47000000D03*
X160420000Y-47000000D03*
D23*
X158350000Y-96500000D03*
X155650000Y-96500000D03*
X158350000Y-98500000D03*
X155650000Y-98500000D03*
D35*
X158975000Y-101475000D03*
X158325000Y-101475000D03*
X157675000Y-101475000D03*
X157025000Y-101475000D03*
X157025000Y-103525000D03*
X157675000Y-103525000D03*
X158325000Y-103525000D03*
X158975000Y-103525000D03*
D36*
X210500000Y-139500000D03*
X118500000Y-139500000D03*
X118500000Y-47500000D03*
X210500000Y-47500000D03*
D22*
X210500000Y-80650000D03*
X210500000Y-83350000D03*
X208000000Y-80650000D03*
X208000000Y-83350000D03*
D20*
X181500000Y-126000000D03*
D21*
X184040000Y-126000000D03*
X186580000Y-126000000D03*
D20*
X181500000Y-130500000D03*
D21*
X184040000Y-130500000D03*
X186580000Y-130500000D03*
D37*
X199000000Y-117500000D03*
D38*
X201000000Y-117500000D03*
X203000000Y-117500000D03*
D37*
X199000000Y-124500000D03*
D38*
X201000000Y-124500000D03*
X203000000Y-124500000D03*
D37*
X199000000Y-131500000D03*
D38*
X201000000Y-131500000D03*
X203000000Y-131500000D03*
D37*
X199000000Y-138500000D03*
D38*
X201000000Y-138500000D03*
X203000000Y-138500000D03*
D20*
X181500000Y-135000000D03*
D21*
X184040000Y-135000000D03*
X186580000Y-135000000D03*
D20*
X181500000Y-139500000D03*
D21*
X184040000Y-139500000D03*
X186580000Y-139500000D03*
D20*
X181500000Y-120000000D03*
D21*
X184040000Y-120000000D03*
X186580000Y-120000000D03*
M02*
