M48
;DRILL file {KiCad 4.0.7} date 11/23/17 20:15:58
;FORMAT={3:3/ absolute / metric / suppress leading zeros}
FMAT,2
METRIC,TZ
T1C0.400
T2C0.600
T3C0.750
T4C0.800
T5C0.810
T6C1.000
T7C1.097
T8C1.500
T9C2.300
T10C3.200
%
G90
G05
M71
T1
X125984Y-68453
X127000Y-68453
X128397Y-70104
X129921Y-92964
X131318Y-70041
X132207Y-84074
X132334Y-89535
X132715Y-82804
X132842Y-72200
X133858Y-72644
X135500Y-59500
X136000Y-61500
X136500Y-52000
X136500Y-54000
X137795Y-74930
X138500Y-63000
X138500Y-64000
X140335Y-84455
X142000Y-65500
X143000Y-73500
X144000Y-66000
X144526Y-101219
X146177Y-55499
X146939Y-66040
X147955Y-57150
X152146Y-100838
X154000Y-97000
X155000Y-82000
X156000Y-84500
X156210Y-110744
X157000Y-67500
X157500Y-49000
X158242Y-81534
X158242Y-88265
X159000Y-100000
X159512Y-88011
X160000Y-103500
X160020Y-90424
X160500Y-57000
X160500Y-66000
X160528Y-87503
X161500Y-85500
X161798Y-80518
X163830Y-102870
X164338Y-87503
X165100Y-84582
X167500Y-52000
X167500Y-53000
X170960Y-65990
X173500Y-54560
X173863Y-114808
X174770Y-55830
X175260Y-117729
X178181Y-118491
X178181Y-124587
X178580Y-50750
X179000Y-90000
X186000Y-110500
X188740Y-54560
X189500Y-77000
X189500Y-105500
X190000Y-52000
X190500Y-137000
X191500Y-92000
X191500Y-98000
X194500Y-65000
X194500Y-89500
X195500Y-78000
X204500Y-80000
X204500Y-85000
X204500Y-99000
X206500Y-102500
T2
X162070Y-57100
X197630Y-68530
X197630Y-73610
T3
X199000Y-117500
X199000Y-124500
X199000Y-131500
X199000Y-138500
X201000Y-117500
X201000Y-124500
X201000Y-131500
X201000Y-138500
X203000Y-117500
X203000Y-124500
X203000Y-131500
X203000Y-138500
T4
X124500Y-54000
X124500Y-56500
X177310Y-58370
X182190Y-58370
T5
X199000Y-58500
X199000Y-61040
X201000Y-58500
X201000Y-61040
T6
X141880Y-81500
X144420Y-81500
X146960Y-81500
X149500Y-81500
X150880Y-92500
X153420Y-92500
X155960Y-92500
X158500Y-92500
X160420Y-47000
X162960Y-47000
X165500Y-47000
X166500Y-100500
X166920Y-94000
X169040Y-100500
X169460Y-94000
X171580Y-100500
X172000Y-94000
X174120Y-100500
X181500Y-120000
X181500Y-126000
X181500Y-130500
X181500Y-135000
X181500Y-139500
X184040Y-120000
X184040Y-126000
X184040Y-130500
X184040Y-135000
X184040Y-139500
X186580Y-120000
X186580Y-126000
X186580Y-130500
X186580Y-135000
X186580Y-139500
X192500Y-112000
X195040Y-112000
X197580Y-112000
T7
X211000Y-72960
X211000Y-75500
T8
X118956Y-97028
X139446Y-97028
T9
X203700Y-53770
X203700Y-65770
T10
X118500Y-47500
X118500Y-139500
X210500Y-47500
X210500Y-139500
T0
M30
