G04 #@! TF.FileFunction,Paste,Top*
%FSLAX46Y46*%
G04 Gerber Fmt 4.6, Leading zero omitted, Abs format (unit mm)*
G04 Created by KiCad (PCBNEW 4.0.7) date 11/23/17 20:16:03*
%MOMM*%
%LPD*%
G01*
G04 APERTURE LIST*
%ADD10C,0.100000*%
%ADD11R,1.600200X2.199640*%
%ADD12R,1.925000X0.650000*%
%ADD13R,1.250000X1.500000*%
%ADD14R,1.300000X1.500000*%
%ADD15R,1.500000X1.300000*%
%ADD16R,1.800000X1.100000*%
%ADD17O,2.500000X0.900000*%
%ADD18O,0.900000X2.500000*%
%ADD19R,6.000000X6.000000*%
%ADD20R,4.600000X1.100000*%
%ADD21R,4.550000X5.250000*%
%ADD22R,0.800000X1.300000*%
%ADD23R,0.350000X0.500000*%
G04 APERTURE END LIST*
D10*
D11*
X190600080Y-48000000D03*
X194399920Y-48000000D03*
X200100080Y-70500000D03*
X203899920Y-70500000D03*
D12*
X119788000Y-72055000D03*
X119788000Y-73325000D03*
X119788000Y-74595000D03*
X119788000Y-75865000D03*
X119788000Y-77135000D03*
X119788000Y-78405000D03*
X119788000Y-79675000D03*
X119788000Y-80945000D03*
X129212000Y-80945000D03*
X129212000Y-79675000D03*
X129212000Y-78405000D03*
X129212000Y-77135000D03*
X129212000Y-75865000D03*
X129212000Y-74595000D03*
X129212000Y-73325000D03*
X129212000Y-72055000D03*
D13*
X165880000Y-59620000D03*
X165880000Y-57120000D03*
X170960000Y-59620000D03*
X170960000Y-57120000D03*
X191500000Y-85250000D03*
X191500000Y-82750000D03*
X168420000Y-59620000D03*
X168420000Y-57120000D03*
X188500000Y-80750000D03*
X188500000Y-83250000D03*
X135763000Y-74632500D03*
X135763000Y-77132500D03*
X193820000Y-71050000D03*
X193820000Y-68550000D03*
X191280000Y-66010000D03*
X191280000Y-68510000D03*
X133413500Y-74632500D03*
X133413500Y-77132500D03*
D14*
X190500000Y-100650000D03*
X190500000Y-103350000D03*
X194500000Y-102650000D03*
X194500000Y-105350000D03*
X194500000Y-95650000D03*
X194500000Y-98350000D03*
X197500000Y-98350000D03*
X197500000Y-95650000D03*
D15*
X163650000Y-105500000D03*
X166350000Y-105500000D03*
X163650000Y-108000000D03*
X166350000Y-108000000D03*
X163650000Y-110500000D03*
X166350000Y-110500000D03*
X144350000Y-77500000D03*
X141650000Y-77500000D03*
X147350000Y-75000000D03*
X144650000Y-75000000D03*
D14*
X194000000Y-116650000D03*
X194000000Y-119350000D03*
X194000000Y-123650000D03*
X194000000Y-126350000D03*
X194000000Y-130650000D03*
X194000000Y-133350000D03*
X194000000Y-137650000D03*
X194000000Y-140350000D03*
D16*
X203600000Y-105850000D03*
X197400000Y-105850000D03*
X203600000Y-102150000D03*
X197400000Y-102150000D03*
X203600000Y-91850000D03*
X197400000Y-91850000D03*
X203600000Y-88150000D03*
X197400000Y-88150000D03*
D17*
X150500000Y-50750000D03*
X150500000Y-52020000D03*
X150500000Y-53290000D03*
X150500000Y-54560000D03*
X150500000Y-55830000D03*
X150500000Y-57100000D03*
X150500000Y-58370000D03*
X150500000Y-59640000D03*
X150500000Y-60910000D03*
X150500000Y-62180000D03*
X150500000Y-63450000D03*
X150500000Y-64720000D03*
X150500000Y-65990000D03*
X150500000Y-67260000D03*
D18*
X147215000Y-68750000D03*
X145945000Y-68750000D03*
X144675000Y-68750000D03*
X143405000Y-68750000D03*
X142135000Y-68750000D03*
X140865000Y-68750000D03*
X139595000Y-68750000D03*
X138325000Y-68750000D03*
X137055000Y-68750000D03*
X135785000Y-68750000D03*
D17*
X132500000Y-67260000D03*
X132500000Y-65990000D03*
X132500000Y-64720000D03*
X132500000Y-63450000D03*
X132500000Y-62180000D03*
X132500000Y-60910000D03*
X132500000Y-59640000D03*
X132500000Y-58370000D03*
X132500000Y-57100000D03*
X132500000Y-55830000D03*
X132500000Y-54560000D03*
X132500000Y-53290000D03*
X132500000Y-52020000D03*
X132500000Y-50750000D03*
D19*
X141200000Y-58450000D03*
D20*
X183275000Y-85540000D03*
X183275000Y-83000000D03*
X183275000Y-80460000D03*
D21*
X171700000Y-80225000D03*
X176550000Y-85775000D03*
X171700000Y-85775000D03*
X176550000Y-80225000D03*
D22*
X170320000Y-52630000D03*
X171600000Y-52630000D03*
X172860000Y-52630000D03*
X174130000Y-52630000D03*
X175410000Y-52630000D03*
X176680000Y-52630000D03*
X177940000Y-52630000D03*
X179220000Y-52630000D03*
X179220000Y-46330000D03*
X177940000Y-46330000D03*
X176680000Y-46330000D03*
X175410000Y-46330000D03*
X174130000Y-46330000D03*
X172860000Y-46330000D03*
X171600000Y-46330000D03*
X170320000Y-46330000D03*
D20*
X186895000Y-71070000D03*
X186895000Y-68530000D03*
X186895000Y-65990000D03*
D21*
X175320000Y-65755000D03*
X180170000Y-71305000D03*
X175320000Y-71305000D03*
X180170000Y-65755000D03*
D14*
X156500000Y-55650000D03*
X156500000Y-58350000D03*
X158500000Y-55350000D03*
X158500000Y-52650000D03*
D15*
X158350000Y-96500000D03*
X155650000Y-96500000D03*
X158350000Y-98500000D03*
X155650000Y-98500000D03*
D23*
X158975000Y-101475000D03*
X158325000Y-101475000D03*
X157675000Y-101475000D03*
X157025000Y-101475000D03*
X157025000Y-103525000D03*
X157675000Y-103525000D03*
X158325000Y-103525000D03*
X158975000Y-103525000D03*
D14*
X210500000Y-80650000D03*
X210500000Y-83350000D03*
X208000000Y-80650000D03*
X208000000Y-83350000D03*
M02*
